<svg version="1.2" xmlns="http://www.w3.org/2000/svg" viewBox="0 0 1695 595" width="1695" height="595">
	<title>Gymko_logo_sa_tekstom-svg</title>
	<style>
		.s0 { fill: #0d26f2 } 
	</style>
	<filter id="f0">
		<feFlood flood-color="#ffffff" flood-opacity="1" />
		<feBlend mode="normal" in2="SourceGraphic"/>
		<feComposite in2="SourceAlpha" operator="in" />
	</filter>
	<g id="Layer" filter="url(#f0)">
		<g id="Layer">
			<g id="Layer5">
				<path id="Layer" fill-rule="evenodd" class="s0" d="m166.2 421.1l-72.9 97.5c77.9-8.8 242.7-55.6 297.3 5.1 66.9-61.9 221.9-12.4 300.3-5.1l-73.2-97.5c0 0 11.1 0 16.8 0 2.1 0 4.2 0.8 5.6 2.4 16.4 17.4 117 124 142.8 151.3 1.1 1.1 1.3 2.7 0.7 4-0.6 1.4-1.9 2.2-3.4 2.2-212.7-6.8-341.4-22-348.4-8.4-1.1 2.1-3.2 3.5-5.6 3.8-21.9 2.3-47.5 2.9-71.8 0.3-2.8-0.4-5.1-2.4-5.8-5.1-4.1-15.6-89.6 6.2-343.8 9.5-1.9 0-3.6-1.1-4.4-2.8-0.8-1.7-0.4-3.8 0.9-5.1 28-29.9 125.2-133.4 140.7-149.9 1.3-1.4 3.2-2.2 5.1-2.2 6.1 0 19.1 0 19.1 0zm197.2 144.9c20.2-10 39.6-9 58.4 0 55.5-50.2 156.7-5.4 312.5 0-124.7-9.7-191.6-39.6-269.2-32.8 64.8-13.9 141 8.9 248.5 17.6-142.2-21.5-170.9-39.4-262.8-25.8 26.1-15.1 72.4-14.3 251.4 11.7-94.5-14-239.4-65.1-311.6 6.1-40.1-39.5-85.9-52.3-306.2-6.1 194.2-31.2 226.4-23.9 250.6-11.7-76.9-14.6-80.7-1.6-265.6 25.8 106.5-7.6 199.4-32.5 248.1-17.6-77.8-5.5-130.7 20.5-265.7 32.8 135.3-2.3 266.7-52.1 311.6 0z"/>
			</g>
		</g>
		<g id="Layer3">
			<g id="Layer">
				<path id="Layer" fill-rule="evenodd" class="s0" d="m277.8 233.8h-10.6l22.8 174.9h-81.7l19.9-174.9h-7.8v-7.6h57.4z"/>
			</g>
			<g id="Layer">
				<path id="Layer" fill-rule="evenodd" class="s0" d="m371.5 233.8h-10.7l22.8 174.9h-81.7l20-174.9h-7.8v-7.6h57.4z"/>
			</g>
			<g id="Layer">
				<path id="Layer" fill-rule="evenodd" class="s0" d="m464.5 233.8h-10.6l22.8 174.9h-81.7l19.9-174.9h-7.7v-7.6h57.3z"/>
			</g>
			<g id="Layer">
				<path id="Layer" fill-rule="evenodd" class="s0" d="m557.6 233.8h-10.7l22.9 174.9h-81.8l20-174.9h-7.8v-7.6h57.4z"/>
			</g>
			<g id="Layer">
				<path id="Layer" class="s0" d="m207.7 204.7h361.4v15.3h-361.4z"/>
			</g>
			<g id="Layer">
				<path id="Layer" fill-rule="evenodd" class="s0" d="m165.6 447.5h13.7v-15.1h13.8v-15.1h390.6v15.1h13.8v15.1h13.7v15.2l-218.9 26.1-226.7-26.1z"/>
			</g>
		</g>
		<g id="Layer">
			<g id="Layer2">
				<path id="Layer" fill-rule="evenodd" class="s0" d="m593.4 199.6h-411.5v-23.9h2.2l-2.2 0.7h3.6c41.5-13.5 64.1-37.6 75.8-75.5 2.4-7.9 10.2-13.2 19.1-13.2 0 0 7.7 0 15.8 0 4.2 0 8.2-1.6 11.1-4.4 2.9-2.8 4.4-6.6 4.2-10.5q-0.1-1.3-0.1-2.7c0-29.8 30.1-54.1 67.3-54.1 37.1 0 67.2 24.3 67.2 54.1q0 1.8-0.1 3.5c-0.3 3.6 1.1 7.2 3.8 9.9 2.6 2.6 6.4 4.1 10.4 4.1 11.3 0.1 24 0.1 24 0.1 8.9 0 16.8 5.3 19.5 13.1 13.1 37.9 38.6 64.1 85 75.6h4.9l-3-0.7h3zm-247.5-126.3c0 14.6 14.7 26.5 32.9 26.5 18.2 0 32.9-11.9 32.9-26.5 0-14.6-14.7-26.5-32.9-26.5-18.2 0-32.9 11.9-32.9 26.5z"/>
			</g>
		</g>
	</g>
	<filter id="f1">
		<feFlood flood-color="#ffffff" flood-opacity="1" />
		<feBlend mode="normal" in2="SourceGraphic"/>
		<feComposite in2="SourceAlpha" operator="in" />
	</filter>
	<g id="Layer" filter="url(#f1)">
		<path id="Layer" class="s0" d="m891.8 97.1q-9.6 3.9-20.7 3.9-43.3 0-43.3-43.7 0-41.3 41.8-41.3 11.9 0 22.2 3.5v9.4q-10.3-4.1-21.1-4.1-32.6 0-32.6 32.5 0 34.9 32.1 34.9 5.1 0 11.3-1.4v-28.5h10.3z"/>
		<path id="Layer" class="s0" d="m928.2 38.9v61.5h-10.3v-61.5zm0-22.3v10.2h-10.3v-10.2z"/>
		<path id="Layer" class="s0" d="m955.1 100.4v-61.5h7l1.7 7.7q8.4-7.7 18.3-7.7 12.7 0 17.3 8.4 9.5-8.4 19.3-8.4 20.1 0 20.1 23.3v38.2h-10.3v-38.7q0-13.8-11-13.8-8.2 0-15.4 8v44.5h-10.3v-38.6q0-13.9-10.9-13.9-8.7 0-15.5 8v44.5z"/>
		<path id="Layer" class="s0" d="m1064.6 100.4v-61.5h7l1.8 7.8q9-7.8 19.7-7.8 21.9 0 21.9 22.9v38.6h-10.3v-38.8q0-13.7-13-13.7-8.8 0-16.8 7.8v44.7z"/>
		<path id="Layer" fill-rule="evenodd" class="s0" d="m1138 81.8q0-18.9 23.7-18.9 7.6 0 15.3 1.2v-5.8q0-10.7-15.8-10.6-9-0.1-18.5 2.9v-8.8q9.5-2.9 18.5-2.9 26 0 26.1 19.1v42.4h-5.8l-3.6-6.1q-8.7 6.1-19 6.1-20.9 0-20.9-18.6zm23.7-10.1q-13.4 0-13.4 9.9 0 10 10.6 10 10.7 0 18.1-6v-12.7q-7.7-1.2-15.3-1.2z"/>
		<path id="Layer" class="s0" d="m1211.4 38.9h45.6v8.8l-34.9 44.5h33.8v8.2h-45.6v-8.2l35.3-44.5h-34.2z"/>
		<path id="Layer" class="s0" d="m1291.4 38.9v61.5h-10.3v-61.5zm0-22.3v10.2h-10.3v-10.2z"/>
		<path id="Layer" class="s0" d="m1329.8 38.9v56.8q0 18.6-8.7 28l-8.6-6.1q7-7.9 7-21.9v-56.8zm0-22.3v10.2h-10.3v-10.2z"/>
		<path id="Layer" fill-rule="evenodd" class="s0" d="m1353.9 81.8q0-18.9 23.7-18.9 7.6 0 15.2 1.2v-5.8q0-10.7-15.7-10.6-9-0.1-18.5 2.9v-8.8q9.5-2.9 18.5-2.9 26 0 26 19.1v42.4h-5.8l-3.5-6.1q-8.8 6.1-19.1 6.1-20.8 0-20.8-18.6zm23.7-10.1q-13.4 0-13.4 9.9 0 10 10.5 10 10.7 0 18.1-6v-12.7q-7.6-1.2-15.2-1.2z"/>
		<path id="Layer" class="s0" d="m830.6 220.4v-83.8h15.3l27 63.6 26.4-63.6h14.8v83.8h-13.7v-58.4l-21.5 58.4h-12.6l-22-58.4v58.4z"/>
		<path id="Layer" class="s0" d="m930.8 136.6h14.7v83.8h-14.7z"/>
		<path id="Layer" class="s0" d="m962.2 220.4v-83.8h14.7v34.6h39.3v-34.6h14.7v83.8h-14.7v-35.7h-39.3v35.7z"/>
		<path id="Layer" class="s0" d="m1055.8 220.4h-15.2l33.8-83.8h15.9l34.5 83.8h-15.9l-9.1-22.8h-26.4l5.1-13.5h16l-12.5-31.5z"/>
		<path id="Layer" class="s0" d="m1159 136.6v59.7q0 24.1-31.5 24.1v-13.5q16.7 0 16.7-10.6v-59.7z"/>
		<path id="Layer" class="s0" d="m1190.4 136.6v70.3h31.6v13.5h-46.3v-83.8z"/>
		<path id="Layer" fill-rule="evenodd" class="s0" d="m1224.8 178.6q0-42.6 39.9-42.6 39.4 0 39.4 42.6 0 42.4-39.4 42.4-38.1 0-39.9-42.4zm15.3-0.3q0 29.2 24.6 29.2 24.1 0 24.1-29.2 0-28.8-24.1-28.8-24.6 0-24.6 28.8z"/>
		<path id="Layer" class="s0" d="m1343 220.4v-83.8h35.6q24.4 0 24.4 23.6 0 25.6-33.4 31l-2.1-13.8q20.1-3.8 20.1-16.7 0-10.4-9.9-10.4h-20v70.1z"/>
		<path id="Layer" class="s0" d="m1412.7 187.5v-50.9h14.7v50.9q0.1 20 19.5 20 19.5 0 19.5-20v-50.9h14.7v50.9q0 33.5-34.2 33.5-34.2 0-34.2-33.5z"/>
		<path id="Layer" class="s0" d="m1497.8 220.4v-83.8h35.6q24.4 0 24.4 23.6 0 25.6-33.3 31l-2.1-13.8q20-3.8 20-16.7 0-10.4-9.9-10.4h-19.9v70.1z"/>
		<path id="Layer" class="s0" d="m1567.5 136.6h14.8v83.8h-14.8z"/>
		<path id="Layer" class="s0" d="m1599 220.4v-83.8h14.7l42 61.1v-61.1h14.2v83.8h-14.7l-42-62.3v62.3z"/>
		<path id="Layer" class="s0" d="m891.8 337.2q-9.6 3.8-20.7 3.8-43.3 0-43.3-43.6 0-41.3 41.8-41.3 11.9 0 22.2 3.5v9.3q-10.3-4.1-21.1-4.1-32.6 0-32.6 32.6 0 34.8 32.1 34.8 5.1 0 11.3-1.4v-28.4h10.3z"/>
		<path id="Layer" class="s0" d="m897.3 278.9h11.2l16.5 48.1 17.1-48.1h10.9l-24.3 63.4q-6.4 16.7-19.3 20.9l-4-7.7q9.8-4.5 14.3-14.7z"/>
		<path id="Layer" class="s0" d="m959.3 340.4v-61.5h6.9l1.7 7.7q8.4-7.7 18.3-7.7 12.7 0 17.3 8.5 9.5-8.5 19.3-8.5 20.2 0 20.2 23.4v38.1h-10.3v-38.7q0-13.8-11-13.8-8.3 0-15.4 8v44.5h-10.3v-38.5q0-14-10.9-14-8.7 0-15.6 8v44.5z"/>
		<path id="Layer" class="s0" d="m1056.3 340.4v-61.5h6.9l1.8 7.9q9-7.9 19.7-7.9 21.9 0 21.9 22.9v38.6h-10.3v-38.7q0-13.8-13-13.8-8.8 0-16.8 7.8v44.7z"/>
		<path id="Layer" fill-rule="evenodd" class="s0" d="m1117.1 321.9q0-19 23.7-19 7.6 0 15.2 1.2v-5.8q0-10.6-15.7-10.6-9 0-18.5 2.9v-8.8q9.5-2.9 18.5-2.9 26 0 26 19.1v42.4h-5.8l-3.5-6q-8.8 6-19.1 6-20.8 0-20.8-18.5zm23.7-10.2q-13.4 0-13.4 10 0 10 10.5 10 10.7 0 18.1-6v-12.8q-7.6-1.2-15.2-1.2zm2.5-55.1h13.3l-13.3 14h-9.1z"/>
		<path id="Layer" class="s0" d="m1177.9 278.9h45.6v8.8l-34.8 44.5h33.7v8.2h-45.6v-8.2l35.3-44.5h-34.2z"/>
		<path id="Layer" class="s0" d="m1245.4 278.9v61.5h-10.3v-61.5zm0-22.3v10.3h-10.2v-10.3z"/>
		<path id="Layer" class="s0" d="m1310.2 278.9v61.5h-7.1l-1.8-7.8q-10.6 7.8-21.3 7.8-20.2 0-20.2-22.9v-38.6h10.3v38.8q0 13.7 12.9 13.7 8.9 0 16.9-7.8v-44.7z"/>
		<path id="Layer" class="s0" d="m1323.4 340.4v-61.5h7l1.7 7.7q8.4-7.7 18.3-7.7 12.7 0 17.3 8.5 9.5-8.5 19.3-8.5 20.2 0 20.2 23.4v38.1h-10.3v-38.7q0-13.8-11-13.8-8.3 0-15.4 8v44.5h-10.3v-38.5q0-14-10.9-14-8.7 0-15.6 8v44.5z"/>
		<path id="Layer" class="s0" d="m830.6 460.5v-83.8h15.3l27 63.6 26.4-63.6h14.8v83.8h-13.7v-58.4l-21.5 58.4h-12.6l-22-58.4v58.4z"/>
		<path id="Layer" class="s0" d="m925.1 376.7h14.7v83.8h-14.7z"/>
		<path id="Layer" class="s0" d="m950.8 460.5v-83.8h14.7v34.5h39.3v-34.5h14.7v83.8h-14.7v-35.8h-39.3v35.8z"/>
		<path id="Layer" class="s0" d="m1038.7 460.5h-15.2l33.8-83.8h15.9l34.5 83.8h-15.9l-9.1-22.9h-26.4l5.1-13.5h16l-12.5-31.4z"/>
		<path id="Layer" class="s0" d="m1136.2 376.7v59.6q0 24.2-31.5 24.2v-13.5q16.7 0 16.7-10.7v-59.6z"/>
		<path id="Layer" class="s0" d="m1161.9 376.7v70.3h31.6v13.5h-46.3v-83.8z"/>
		<path id="Layer" class="s0" d="m1209.9 460.5h-15.1l33.7-83.8h15.9l34.5 83.8h-15.9l-9-22.9h-26.5l5.1-13.5h16l-12.5-31.4z"/>
		<path id="Layer" class="s0" d="m1302.3 460.5v-83.8h35.6q24.3 0 24.3 23.6 0 25.6-33.3 31l-2.1-13.8q20-3.8 20-16.7 0-10.5-9.9-10.5h-19.9v70.2z"/>
		<path id="Layer" class="s0" d="m1366.3 427.5v-50.8h14.7v50.8q0 20.1 19.5 20.1 19.5 0 19.5-20.1v-50.8h14.7v50.8q0 33.6-34.2 33.6-34.2 0-34.2-33.6z"/>
		<path id="Layer" class="s0" d="m1445.7 460.5v-83.8h35.6q24.4 0 24.4 23.6 0 25.6-33.4 31l-2.1-13.8q20.1-3.8 20.1-16.7 0-10.5-9.9-10.5h-20v70.2z"/>
		<path id="Layer" class="s0" d="m1509.7 376.7h14.8v83.8h-14.8z"/>
		<path id="Layer" class="s0" d="m1535.4 460.5v-83.8h14.8l42 61v-61h14.2v83.8h-14.8l-42-62.4v62.4z"/>
		<path id="Layer" class="s0" d="m1625.5 460.5h-15.1l33.8-83.8h15.8l34.5 83.8h-15.8l-9.1-22.9h-26.4l5-13.5h16.1l-12.5-31.4z"/>
		<path id="Layer" class="s0" d="m842 496.7v83.8h-10.3v-83.8zm56 0l-35.8 39.6 36.6 44.2h-14.3l-32.5-40.3v-6.6l33-36.9z"/>
		<path id="Layer" fill-rule="evenodd" class="s0" d="m906.3 549.7q0-30.7 27.8-30.7 27.8 0 27.8 30.7 0 30.7-27.8 30.7-27.7 0-27.8-30.7zm10.3-0.2q0 22.2 17.5 22.2 17.5 0 17.5-22.2 0-21.7-17.5-21.7-17.5 0-17.5 21.7z"/>
		<path id="Layer" class="s0" d="m968.1 519h11.1l16.7 48.2 16.7-48.2h11.1l-23.8 61.5h-9.5z"/>
		<path id="Layer" fill-rule="evenodd" class="s0" d="m1029.8 561.9q0-18.9 23.7-18.9 7.6 0 15.3 1.2v-5.8q0-10.6-15.8-10.6-9 0-18.4 2.9v-8.8q9.4-2.9 18.4-2.9 26.1 0 26.1 19.1v42.4h-5.8l-3.6-6.1q-8.7 6.1-19 6.1-20.9 0-20.9-18.6zm23.7-10.1q-13.4 0-13.4 10 0 9.9 10.6 9.9 10.7 0 18.1-6v-12.7q-7.7-1.2-15.3-1.2z"/>
		<path id="Layer" class="s0" d="m1140.3 578.7q-7.3 1.8-15.6 1.8-31.2 0-31.2-31.9 0-29.6 31.2-29.6 8.3 0 15.6 1.7v8.8q-7.3-1.7-16.2-1.7-20.3 0-20.3 20.8 0 23.1 20.3 23.1 8.9 0 16.2-1.7zm-33.5-82.1h8.3l5.6 9.4 5.6-9.4h8.3l-9.7 15.2h-8.4z"/>
		<path id="Layer" class="s0" d="m1165.3 519v61.5h-10.3v-61.5zm0-22.3v10.3h-10.3v-10.3z"/>
		<path id="Layer" class="s0" d="m1227.6 578.7q-7.2 1.8-15.5 1.8-31.2 0-31.2-31.9 0-29.6 31.2-29.6 8.3 0 15.5 1.7v8.8q-7.2-1.7-16.1-1.7-20.3 0-20.3 20.8 0 23.1 20.3 23.1 8.9 0 16.1-1.7z"/>
		<path id="Layer" fill-rule="evenodd" class="s0" d="m1238.5 561.9q0-18.9 23.7-18.9 7.6 0 15.2 1.2v-5.8q0-10.6-15.7-10.6-9 0-18.5 2.9v-8.8q9.5-2.9 18.5-2.9 26 0 26 19.1v42.4h-5.7l-3.6-6.1q-8.7 6.1-19 6.1-20.9 0-20.9-18.6zm23.7-10.1q-13.4 0-13.4 10 0 9.9 10.6 9.9 10.6 0 18-6v-12.7q-7.6-1.2-15.2-1.2z"/>
	</g>
</svg>